<svg width="28" height="28" viewBox="0 0 28 28" fill="none" xmlns="http://www.w3.org/2000/svg">
<path d="M24.7998 12.7889C25.3528 13.5123 25.3528 14.4888 24.7998 15.2109C23.058 17.4848 18.879 22.1666 14 22.1666C9.12097 22.1666 4.94197 17.4848 3.20014 15.2109C2.93109 14.8646 2.78503 14.4385 2.78503 13.9999C2.78503 13.5613 2.93109 13.1353 3.20014 12.7889C4.94197 10.5151 9.12097 5.83325 14 5.83325C18.879 5.83325 23.058 10.5151 24.7998 12.7889V12.7889Z" stroke="black" stroke-width="3" stroke-linecap="round" stroke-linejoin="round"/>
<path d="M14 17.5C15.933 17.5 17.5 15.933 17.5 14C17.5 12.067 15.933 10.5 14 10.5C12.067 10.5 10.5 12.067 10.5 14C10.5 15.933 12.067 17.5 14 17.5Z" stroke="black" stroke-width="3" stroke-linecap="round" stroke-linejoin="round"/>
</svg>
